<?xml version="1.0" encoding="utf-8"?>
<!-- Generator: Adobe Illustrator 16.0.0, SVG Export Plug-In . SVG Version: 6.00 Build 0)  -->
<!DOCTYPE svg PUBLIC "-//W3C//DTD SVG 1.1//EN" "http://www.w3.org/Graphics/SVG/1.1/DTD/svg11.dtd">
<svg version="1.1" id="Layer_1" xmlns="http://www.w3.org/2000/svg" xmlns:xlink="http://www.w3.org/1999/xlink" x="0px" y="0px"
	 width="94px" height="94px" viewBox="0 0 94 94" enable-background="new 0 0 94 94" xml:space="preserve">
<g>
	<path fill="#D3D5BF" d="M9.035,49.959c-0.455,0.224-0.969,0.336-1.544,0.336c-0.461,0-0.898-0.077-1.312-0.231
		c-0.414-0.153-0.774-0.377-1.082-0.672c-0.308-0.293-0.553-0.647-0.735-1.061c-0.182-0.412-0.273-0.878-0.273-1.396
		c0-0.503,0.087-0.962,0.263-1.374c0.175-0.414,0.413-0.768,0.714-1.062c0.301-0.294,0.647-0.521,1.04-0.682
		c0.392-0.161,0.798-0.242,1.218-0.242c0.49,0,0.962,0.073,1.417,0.221s0.885,0.402,1.291,0.767l0.777-1.323
		c-0.447-0.448-0.99-0.767-1.628-0.956C8.546,42.094,7.849,42,7.093,42c-0.699,0-1.341,0.131-1.921,0.389
		c-0.581,0.26-1.085,0.609-1.512,1.051c-0.428,0.441-0.76,0.962-0.998,1.563c-0.238,0.603-0.357,1.246-0.357,1.932
		c0,0.742,0.123,1.418,0.368,2.026c0.245,0.609,0.591,1.132,1.04,1.565c0.448,0.434,0.979,0.766,1.596,0.996
		c0.616,0.231,1.301,0.348,2.057,0.348c0.729,0,1.415-0.133,2.059-0.398c0.644-0.267,1.169-0.658,1.575-1.177l-0.799-1.218
		C9.879,49.441,9.49,49.735,9.035,49.959z"/>
	<path fill="#D3D5BF" d="M93.645,45.091c-0.238-0.602-0.571-1.123-0.998-1.563c-0.428-0.44-0.945-0.783-1.555-1.028
		s-1.285-0.368-2.025-0.368c-0.646,0-1.239,0.1-1.785,0.294c-0.547,0.196-1.022,0.474-1.428,0.83
		c-0.406,0.356-0.742,0.718-1.01,1.199C84.578,44.938,84.396,46,84.298,46H82v-4h-2v10h2v-4h2.277c0.068,0,0.234,1.08,0.492,1.592
		c0.26,0.51,0.596,0.901,1.008,1.271c0.414,0.371,0.896,0.638,1.449,0.848s1.166,0.303,1.838,0.303c0.729,0,1.396-0.13,2.006-0.375
		c0.609-0.244,1.131-0.591,1.563-1.031c0.435-0.44,0.771-0.963,1.009-1.565S94,47.779,94,47.066
		C94,46.352,93.881,45.693,93.645,45.091z M91.279,49.438c-0.553,0.588-1.271,0.883-2.151,0.883s-1.604-0.291-2.163-0.871
		c-0.559-0.581-0.84-1.376-0.84-2.385c0-0.489,0.073-0.935,0.221-1.334c0.146-0.397,0.354-0.74,0.619-1.027
		c0.266-0.287,0.581-0.508,0.945-0.662c0.363-0.152,0.77-0.23,1.218-0.23s0.856,0.08,1.229,0.241
		c0.371,0.161,0.686,0.382,0.944,0.661c0.259,0.28,0.458,0.623,0.599,1.029s0.211,0.848,0.211,1.322
		C92.109,48.061,91.834,48.852,91.279,49.438z"/>
	<path fill="#D3D5BF" d="M73.74,46.985l-18.385-5.656l-0.707-0.707l5.657-7.071l-7.072,5.656L52.526,38.5L46.87,20.115L41.213,38.5
		l-0.707,0.707l-7.071-5.656l5.657,7.071l-0.707,0.707L20,46.985l18.385,5.657l0.707,0.707l-5.657,7.07l7.071-5.656l0.707,0.707
		l5.657,18.385l5.656-18.385l0.707-0.707l7.072,5.656l-5.657-7.07l0.707-0.707L73.74,46.985z M46.163,39.207L44.042,38.5
		l2.122-4.949L46.163,39.207z M41.92,46.279h-8.485l7.071-2.829l2.122,2.122L41.92,46.279z M47.577,54.764l2.121,0.707l-2.121,4.95
		V54.764z M53.233,50.521l-2.828-2.828l0.707-0.707l9.193,0.707L53.233,50.521z"/>
</g>
</svg>
